<svg width="28" height="22" viewBox="0 0 28 22" fill="none" xmlns="http://www.w3.org/2000/svg">
<path fill-rule="evenodd" clip-rule="evenodd" d="M10.4422 18.518C11.2345 18.8291 12.0973 19 13 19H14.1236C15.0598 19 15.9577 19.3719 16.6197 20.0339L17.8552 21.2695C19.6309 23.0452 22.4016 21.1097 21.6795 18.9674C25.2266 18.6258 28 15.6368 28 12C28 9.16672 26.3167 6.72659 23.8956 5.62511C23.9643 6.07337 24 6.53253 24 7C24 7.32497 23.9828 7.64592 23.9492 7.96198C25.1925 8.87158 26 10.3415 26 12C26 14.7614 23.7614 17 21 17H20.0814C19.2683 17 18.766 17.8871 19.1844 18.5844L19.7308 19.495C19.7964 19.6043 19.7896 19.6687 19.7813 19.7043C19.7693 19.7554 19.7318 19.8227 19.6594 19.8792C19.587 19.9357 19.5127 19.9558 19.4602 19.955C19.4237 19.9544 19.3596 19.9454 19.2695 19.8553L18.0339 18.6197C16.9968 17.5826 15.5902 17 14.1236 17H13C12.7598 17 12.5235 16.9831 12.2923 16.9503L11.5589 17.6837C11.2045 18.0381 10.8288 18.3136 10.4422 18.518Z" fill="#FF9200"/>
<path fill-rule="evenodd" clip-rule="evenodd" d="M7 0C3.13401 0 0 3.13401 0 7C0 10.6368 2.77337 13.6258 6.32052 13.9674C5.59835 16.1097 8.36906 18.0452 10.1447 16.2695L11.3803 15.0339C12.0423 14.3719 12.9402 14 13.8764 14H15C18.866 14 22 10.866 22 7C22 3.13401 18.866 0 15 0H7ZM2 7C2 4.23858 4.23858 2 7 2H15C17.7614 2 20 4.23858 20 7C20 9.76142 17.7614 12 15 12H13.8764C12.4097 12 11.0032 12.5826 9.9661 13.6197L8.73052 14.8553C8.64042 14.9454 8.57628 14.9544 8.5398 14.955C8.4873 14.9558 8.41295 14.9357 8.34055 14.8792C8.26815 14.8226 8.23065 14.7554 8.21869 14.7043C8.21038 14.6687 8.20361 14.6043 8.26917 14.495L8.81558 13.5843C9.23395 12.8871 8.73167 12 7.91854 12H7C4.23858 12 2 9.76142 2 7ZM6 8C6.55228 8 7 7.55228 7 7C7 6.44772 6.55228 6 6 6C5.44772 6 5 6.44772 5 7C5 7.55228 5.44772 8 6 8ZM12 7C12 7.55228 11.5523 8 11 8C10.4477 8 10 7.55228 10 7C10 6.44772 10.4477 6 11 6C11.5523 6 12 6.44772 12 7ZM16 8C16.5523 8 17 7.55228 17 7C17 6.44772 16.5523 6 16 6C15.4477 6 15 6.44772 15 7C15 7.55228 15.4477 8 16 8Z" fill="#E8366C"/>
</svg>

