<svg width="50" height="53" viewBox="0 0 50 53" fill="none" xmlns="http://www.w3.org/2000/svg">
<path fill-rule="evenodd" clip-rule="evenodd" d="M0.515015 41.6036C1.48322 35.5261 6.90913 30.3993 14.4337 27.8864C17.185 30.6687 20.8595 32.413 25.0535 32.413C29.2204 32.413 32.8745 30.6912 35.6198 27.9402C43.1051 30.487 48.4803 35.6292 49.3952 41.7102C43.5255 48.6173 34.7747 52.9997 25.0002 52.9997C15.1756 52.9997 6.38503 48.5722 0.515015 41.6036ZM37.4802 14.813C37.4802 19.9027 35.1325 24.3664 31.6059 26.8696C29.7036 28.2198 27.4583 28.9997 25.0535 28.9997C22.6944 28.9997 20.4887 28.2491 18.6098 26.9458C15.0229 24.4577 12.6269 19.9548 12.6269 14.813C12.6269 6.97793 18.1905 0.626343 25.0535 0.626343C31.9166 0.626343 37.4802 6.97793 37.4802 14.813Z" fill="#FBFEFF"/>
</svg>
